<?xml version="1.0" encoding="utf-8"?>
<!-- Generator: Adobe Illustrator 21.0.0, SVG Export Plug-In . SVG Version: 6.00 Build 0)  -->
<svg version="1.1" id="Layer_2" xmlns="http://www.w3.org/2000/svg" xmlns:xlink="http://www.w3.org/1999/xlink" x="0px" y="0px"
	 viewBox="0 0 366.5 129.5" style="enable-background:new 0 0 366.5 129.5;" xml:space="preserve">
<style type="text/css">
	.st0{fill:#B3282D;}
	.st1{fill:#4D9D45;}
	.st2{fill:#E07E26;}
	.st3{fill:#FFC52F;}
	.st4{fill:#006394;}
</style>
<g>
	<g>
		<polygon class="st0" points="5.3,123.2 3.7,126.7 75.1,126.7 78,123.2 5.3,123.2 		"/>
		<polygon class="st1" points="77.2,123.2 74.7,126.7 146.5,126.7 150,123.2 77.2,123.2 		"/>
		<polygon class="st2" points="295.6,123.2 292.1,126.7 356.8,126.7 360.3,123.2 295.6,123.2 		"/>
		<polygon class="st3" points="149.9,123.2 146.4,126.7 225.2,126.7 228.7,123.2 149.9,123.2 		"/>
		<polygon class="st4" points="222.9,123.2 219.4,126.7 292.1,126.7 295.6,123.2 222.9,123.2 		"/>
	</g>
	<g>
		<path class="st4" d="M3.8,41.6c0-20.9,14.6-38.7,37.5-38.7c21.2,0,35.3,13.7,35.3,34.2C76.5,58,61.9,75.8,39,75.8
			C17.8,75.8,3.8,62.1,3.8,41.6z M58.4,37.2c0-10.8-6.5-18.5-17.1-18.5c-11.4,0-19.3,9.3-19.3,22.8C21.9,52.3,28.5,60,39,60
			C50.4,60,58.4,50.7,58.4,37.2z"/>
		<path class="st4" d="M111.9,74.6l5.5-31.2c0.2-1.3,0.2-2.1,0.2-2.7c0-3.4-2.3-5.6-6.8-5.6c-2.7,0-5.7,0.5-8.4,1.3l-6.6,38.2H78.9
			L87.6,25c6.8-2.4,17.6-5,26-5c13.2,0,21.2,4.2,21.2,16.4c0,2-0.2,4.5-0.6,6.9l-5.5,31.3H111.9z"/>
		<path class="st4" d="M185.6,72.2c-5.6,2.6-11,3.6-18.3,3.6c-15.7,0-26.7-8.5-26.7-25.4c0-16.6,10.9-30.4,29.6-30.4
			c15.5,0,22.6,9,22.6,21.2c0,3.1-0.8,7.8-2.4,11.8h-33.1c0,0.1,0,0.2,0,0.4c1.2,5.8,6.5,8.3,12.7,8.3c7,0,12.5-1.5,18.2-4.3
			L185.6,72.2z M176.7,43.3c0.1-0.8,0.2-1.7,0.2-2.5c0-4.5-2.8-7.4-7.5-7.4c-6.2,0-10.1,3.9-11.6,9.9H176.7z"/>
		<path class="st2" d="M226.2,2.4c-4.4,0-10,0.4-14.4,1l-0.4,0l-12.3,69.9l-0.1,0.4l0.4,0.1c4,1.4,11.2,2.4,18,2.4
			c28.8,0,46.1-15.4,46.1-41.2C263.5,14.6,249.6,2.4,226.2,2.4z M217.4,68.9c-4.7,0-7.3-0.5-9.2-0.9l10.2-57.8
			c2.6-0.2,5.4-0.3,7.8-0.3c17.9,0,28.9,9.7,28.9,25.3C255.2,56.9,241.8,68.9,217.4,68.9z"/>
		<path class="st2" d="M299.1,20.1h-8.8l-31.4,55.6h8.4l8.3-14.7h24.3l3.1,14.7h7.9L299.1,20.1z M298.5,54.1h-19.1L293.4,29
			L298.5,54.1z"/>
		<polygon class="st2" points="351.3,20.1 331.3,46.1 320.4,20.1 312.1,20.1 326.4,53.4 322.5,75.7 330.3,75.7 334.1,53.8 
			360.4,20.1 		"/>
		<g>
			<polygon class="st2" points="345.2,69.5 347.2,69.5 347.2,74.5 348.7,74.5 348.7,69.5 350.7,69.5 350.7,68.1 345.2,68.1 			"/>
			<polygon class="st2" points="358.4,68.1 356.5,68.1 355.2,72.6 353.9,68.1 352,68.1 351,74.5 352.5,74.5 353.2,70.3 354.5,74.5 
				355.9,74.5 357.1,70.3 357.9,74.5 359.4,74.5 			"/>
		</g>
	</g>
	<g>
		<path class="st4" d="M17.5,109.9h-3.9V90.5H6.3V87h18.4v3.5h-7.2V109.9z"/>
		<path class="st4" d="M37.7,86.6c6.6,0,11.9,4.8,11.9,11.8c0,7-5.3,11.8-11.9,11.8c-6.6,0-11.9-4.8-11.9-11.8
			C25.8,91.5,31,86.6,37.7,86.6z M37.7,90.2c-4.4,0-7.8,3.3-7.8,8.3c0,5,3.4,8.3,7.8,8.3c4.4,0,7.8-3.3,7.8-8.3
			C45.5,93.5,42.1,90.2,37.7,90.2z"/>
		<path class="st4" d="M77.9,92.6c-1.6-1.5-3.8-2.4-6.3-2.4c-4.5,0-7.7,3.3-7.7,8.3c0,5,3.4,8.3,7.9,8.3c2.6,0,4.7-0.8,6.5-2.3v4.2
			c-2,1.2-4.2,1.7-6.6,1.7c-7,0-11.8-4.9-11.8-11.8c0-7,5-11.8,11.8-11.8c2.3,0,4.5,0.5,6.3,1.6V92.6z"/>
		<path class="st4" d="M92.9,86.6c6.6,0,11.9,4.8,11.9,11.8c0,7-5.3,11.8-11.9,11.8c-6.6,0-11.9-4.8-11.9-11.8
			C81,91.5,86.3,86.6,92.9,86.6z M92.9,90.2c-4.4,0-7.8,3.3-7.8,8.3c0,5,3.4,8.3,7.8,8.3c4.4,0,7.8-3.3,7.8-8.3
			C100.7,93.5,97.3,90.2,92.9,90.2z"/>
		<path class="st4" d="M124.6,103.9V87h3.8v22.9h-3.8l-11.7-16.8v16.8h-3.8V87h4L124.6,103.9z"/>
		<path class="st4" d="M144.1,110.3c-6.4-0.2-11.4-5-11.4-11.8c0-7,5.2-11.8,11.9-11.8c6.6,0,11.9,4.8,11.9,11.8
			c0,5.6-3.4,9.8-8.1,11.3l5.1,5.6h-4.8L144.1,110.3z M144.6,90.2c-4.4,0-7.8,3.3-7.8,8.3c0,5,3.4,8.3,7.8,8.3
			c4.4,0,7.8-3.3,7.8-8.3C152.5,93.5,149,90.2,144.6,90.2z"/>
		<path class="st4" d="M160.4,87h3.9v14.4c0,4.4,2.3,5.5,5.7,5.5c1.8,0,3.2-0.2,4.5-0.4V87h3.9v22.2c-2.1,0.6-5.7,1-8.4,1
			c-5.2,0-9.6-1.8-9.6-8.2V87z"/>
		<path class="st4" d="M198.4,106.4v3.5h-14.2V87h14v3.5h-10.1v6.2h9.4v3.4h-9.4v6.4H198.4z"/>
		<path class="st4" d="M207,109.9H203V87.1c1.4-0.2,3.9-0.4,5.7-0.4c6,0,9.3,2.7,9.3,7.5c0,3.4-1.9,5.8-4.5,6.8l6.9,9h-4.7l-6.1-8.1
			H207V109.9z M207,98.5h1.9c3.1,0,5.1-1.3,5.1-4.3c0-2.6-1.8-4.2-5.3-4.2c-0.5,0-1.3,0-1.8,0.1V98.5z"/>
		<path class="st4" d="M247.3,92.6c-1.6-1.5-3.8-2.4-6.3-2.4c-4.5,0-7.7,3.3-7.7,8.3c0,5,3.4,8.3,7.9,8.3c2.6,0,4.7-0.8,6.5-2.3v4.2
			c-2,1.2-4.2,1.7-6.6,1.7c-7,0-11.8-4.9-11.8-11.8c0-7,5-11.8,11.8-11.8c2.3,0,4.5,0.5,6.3,1.6V92.6z"/>
		<path class="st4" d="M255.7,104.5l-2,5.4h-4.2l8.9-22.9h4.8l8.9,22.9h-4.3l-2-5.4H255.7z M260.8,90.7l-3.9,10.6h7.8L260.8,90.7z"
			/>
		<path class="st4" d="M290.8,103.9V87h3.8v22.9h-3.8l-11.7-16.8v16.8h-3.8V87h4L290.8,103.9z"/>
		<path class="st4" d="M317.1,92.6c-1.6-1.5-3.8-2.4-6.3-2.4c-4.5,0-7.7,3.3-7.7,8.3c0,5,3.4,8.3,7.9,8.3c2.6,0,4.7-0.8,6.5-2.3v4.2
			c-2,1.2-4.2,1.7-6.6,1.7c-7,0-11.8-4.9-11.8-11.8c0-7,5-11.8,11.8-11.8c2.3,0,4.5,0.5,6.3,1.6V92.6z"/>
		<path class="st4" d="M335.9,106.4v3.5h-14.2V87h14v3.5h-10.1v6.2h9.4v3.4h-9.4v6.4H335.9z"/>
		<path class="st4" d="M344.5,109.9h-3.9V87.1c1.4-0.2,3.9-0.4,5.7-0.4c6,0,9.3,2.7,9.3,7.5c0,3.4-1.9,5.8-4.5,6.8l6.9,9h-4.7
			l-6.1-8.1h-2.6V109.9z M344.5,98.5h1.9c3.1,0,5.1-1.3,5.1-4.3c0-2.6-1.8-4.2-5.3-4.2c-0.5,0-1.3,0-1.8,0.1V98.5z"/>
	</g>
</g>
</svg>
