<?xml version="1.0" encoding="utf-8"?>
<!-- Generator: Adobe Illustrator 21.0.0, SVG Export Plug-In . SVG Version: 6.00 Build 0)  -->
<svg version="1.1" id="Layer_2" xmlns="http://www.w3.org/2000/svg" xmlns:xlink="http://www.w3.org/1999/xlink" x="0px" y="0px"
	 viewBox="0 0 362.9 157.5" style="enable-background:new 0 0 362.9 157.5;" xml:space="preserve">
<style type="text/css">
	.st0{fill:#B3282D;}
	.st1{fill:#4E9D2D;}
	.st2{fill:#E27C00;}
	.st3{fill:#FFC627;}
	.st4{fill:#00609C;}
</style>
<g>
	<g>
		<polygon class="st0" points="7.8,123.2 6.2,126.7 77.6,126.7 80.5,123.2 7.8,123.2 		"/>
		<polygon class="st1" points="79.7,123.2 77.2,126.7 149,126.7 152.5,123.2 79.7,123.2 		"/>
		<polygon class="st2" points="298.1,123.2 294.6,126.7 359.3,126.7 362.8,123.2 298.1,123.2 		"/>
		<polygon class="st3" points="152.4,123.2 148.9,126.7 227.7,126.7 231.2,123.2 152.4,123.2 		"/>
		<polygon class="st4" points="225.4,123.2 221.9,126.7 294.6,126.7 298.1,123.2 225.4,123.2 		"/>
	</g>
	<g>
		<path class="st4" d="M6.3,41.6c0-20.9,14.6-38.7,37.5-38.7C65,2.9,79,16.5,79,37.1C79,58,64.4,75.8,41.5,75.8
			C20.3,75.8,6.3,62.1,6.3,41.6z M60.9,37.2c0-10.8-6.5-18.5-17.1-18.5c-11.4,0-19.3,9.3-19.3,22.8C24.4,52.3,31,60,41.5,60
			C52.9,60,60.9,50.7,60.9,37.2z"/>
		<path class="st4" d="M114.4,74.6l5.5-31.2c0.2-1.3,0.2-2.1,0.2-2.7c0-3.4-2.3-5.6-6.8-5.6c-2.7,0-5.7,0.5-8.4,1.3l-6.6,38.2H81.4
			L90.1,25c6.8-2.4,17.6-5,26-5c13.2,0,21.2,4.2,21.2,16.4c0,2-0.2,4.5-0.6,6.9l-5.5,31.3H114.4z"/>
		<path class="st4" d="M188.1,72.2c-5.6,2.6-11,3.6-18.3,3.6c-15.7,0-26.7-8.5-26.7-25.4c0-16.6,10.9-30.4,29.6-30.4
			c15.5,0,22.6,9,22.6,21.2c0,3.1-0.8,7.8-2.4,11.8h-33.1c0,0.1,0,0.2,0,0.4c1.2,5.8,6.5,8.3,12.7,8.3c7,0,12.5-1.5,18.2-4.3
			L188.1,72.2z M179.2,43.3c0.1-0.8,0.2-1.7,0.2-2.5c0-4.5-2.8-7.4-7.5-7.4c-6.2,0-10.1,3.9-11.6,9.9H179.2z"/>
		<path class="st2" d="M228.7,2.4c-4.4,0-10,0.4-14.4,1l-0.4,0l-12.3,69.9l-0.1,0.4l0.4,0.1c4,1.4,11.2,2.4,18,2.4
			c28.8,0,46.1-15.4,46.1-41.2C266,14.6,252.1,2.4,228.7,2.4z M219.9,68.9c-4.7,0-7.3-0.5-9.2-0.9l10.2-57.8
			c2.6-0.2,5.4-0.3,7.8-0.3c17.9,0,28.9,9.7,28.9,25.3C257.7,56.9,244.3,68.9,219.9,68.9z"/>
		<path class="st2" d="M301.6,20.1h-8.8l-31.4,55.6h8.4L278,61h24.3l3.1,14.7h7.9L301.6,20.1z M301,54.1h-19.1L295.9,29L301,54.1z"
			/>
		<polygon class="st2" points="353.8,20.1 333.8,46.1 322.9,20.1 314.6,20.1 328.9,53.4 325,75.7 332.8,75.7 336.6,53.8 362.9,20.1 
					"/>
		<g>
			<polygon class="st2" points="347.7,69.5 349.7,69.5 349.7,74.5 351.2,74.5 351.2,69.5 353.2,69.5 353.2,68.1 347.7,68.1 			"/>
			<polygon class="st2" points="360.9,68.1 359,68.1 357.7,72.6 356.4,68.1 354.5,68.1 353.5,74.5 355,74.5 355.7,70.3 357,74.5 
				358.4,74.5 359.6,70.3 360.4,74.5 361.9,74.5 			"/>
		</g>
	</g>
	<g>
		<path class="st4" d="M20,109.9h-3.9V90.5H8.8V87h18.4v3.5H20V109.9z"/>
		<path class="st4" d="M40.2,86.6c6.6,0,11.9,4.8,11.9,11.8c0,7-5.3,11.8-11.9,11.8c-6.6,0-11.9-4.8-11.9-11.8
			C28.3,91.5,33.5,86.6,40.2,86.6z M40.2,90.2c-4.4,0-7.8,3.3-7.8,8.3c0,5,3.4,8.3,7.8,8.3c4.4,0,7.8-3.3,7.8-8.3
			C48,93.5,44.6,90.2,40.2,90.2z"/>
		<path class="st4" d="M80.4,92.6c-1.6-1.5-3.8-2.4-6.3-2.4c-4.5,0-7.7,3.3-7.7,8.3c0,5,3.4,8.3,7.9,8.3c2.6,0,4.7-0.8,6.5-2.3v4.2
			c-2,1.2-4.2,1.7-6.6,1.7c-7,0-11.8-4.9-11.8-11.8c0-7,5-11.8,11.8-11.8c2.3,0,4.5,0.5,6.3,1.6V92.6z"/>
		<path class="st4" d="M95.4,86.6c6.6,0,11.9,4.8,11.9,11.8c0,7-5.3,11.8-11.9,11.8c-6.6,0-11.9-4.8-11.9-11.8
			C83.5,91.5,88.8,86.6,95.4,86.6z M95.4,90.2c-4.4,0-7.8,3.3-7.8,8.3c0,5,3.4,8.3,7.8,8.3c4.4,0,7.8-3.3,7.8-8.3
			C103.2,93.5,99.8,90.2,95.4,90.2z"/>
		<path class="st4" d="M127.1,103.9V87h3.8v22.9h-3.8l-11.7-16.8v16.8h-3.8V87h4L127.1,103.9z"/>
		<path class="st4" d="M146.6,110.3c-6.4-0.2-11.4-5-11.4-11.8c0-7,5.2-11.8,11.9-11.8c6.6,0,11.9,4.8,11.9,11.8
			c0,5.6-3.4,9.8-8.1,11.3l5.1,5.6h-4.8L146.6,110.3z M147.1,90.2c-4.4,0-7.8,3.3-7.8,8.3c0,5,3.4,8.3,7.8,8.3
			c4.4,0,7.8-3.3,7.8-8.3C155,93.5,151.5,90.2,147.1,90.2z"/>
		<path class="st4" d="M162.9,87h3.9v14.4c0,4.4,2.3,5.5,5.7,5.5c1.8,0,3.2-0.2,4.5-0.4V87h3.9v22.2c-2.1,0.6-5.7,1-8.4,1
			c-5.2,0-9.6-1.8-9.6-8.2V87z"/>
		<path class="st4" d="M200.9,106.4v3.5h-14.2V87h14v3.5h-10.1v6.2h9.4v3.4h-9.4v6.4H200.9z"/>
		<path class="st4" d="M209.5,109.9h-3.9V87.1c1.4-0.2,3.9-0.4,5.7-0.4c6,0,9.3,2.7,9.3,7.5c0,3.4-1.9,5.8-4.5,6.8l6.9,9h-4.7
			l-6.1-8.1h-2.6V109.9z M209.5,98.5h1.9c3.1,0,5.1-1.3,5.1-4.3c0-2.6-1.8-4.2-5.3-4.2c-0.5,0-1.3,0-1.8,0.1V98.5z"/>
		<path class="st4" d="M249.8,92.6c-1.6-1.5-3.8-2.4-6.3-2.4c-4.5,0-7.7,3.3-7.7,8.3c0,5,3.4,8.3,7.9,8.3c2.6,0,4.7-0.8,6.5-2.3v4.2
			c-2,1.2-4.2,1.7-6.6,1.7c-7,0-11.8-4.9-11.8-11.8c0-7,5-11.8,11.8-11.8c2.3,0,4.5,0.5,6.3,1.6V92.6z"/>
		<path class="st4" d="M258.2,104.5l-2,5.4h-4.2L261,87h4.8l8.9,22.9h-4.3l-2-5.4H258.2z M263.3,90.7l-3.9,10.6h7.8L263.3,90.7z"/>
		<path class="st4" d="M293.3,103.9V87h3.8v22.9h-3.8l-11.7-16.8v16.8h-3.8V87h4L293.3,103.9z"/>
		<path class="st4" d="M319.6,92.6c-1.6-1.5-3.8-2.4-6.3-2.4c-4.5,0-7.7,3.3-7.7,8.3c0,5,3.4,8.3,7.9,8.3c2.6,0,4.7-0.8,6.5-2.3v4.2
			c-2,1.2-4.2,1.7-6.6,1.7c-7,0-11.8-4.9-11.8-11.8c0-7,5-11.8,11.8-11.8c2.3,0,4.5,0.5,6.3,1.6V92.6z"/>
		<path class="st4" d="M338.4,106.4v3.5h-14.2V87h14v3.5h-10.1v6.2h9.4v3.4h-9.4v6.4H338.4z"/>
		<path class="st4" d="M347,109.9h-3.9V87.1c1.4-0.2,3.9-0.4,5.7-0.4c6,0,9.3,2.7,9.3,7.5c0,3.4-1.9,5.8-4.5,6.8l6.9,9h-4.7
			l-6.1-8.1H347V109.9z M347,98.5h1.9c3.1,0,5.1-1.3,5.1-4.3c0-2.6-1.8-4.2-5.3-4.2c-0.5,0-1.3,0-1.8,0.1V98.5z"/>
	</g>
	<g>
		<path class="st4" d="M7.3,139.2h1.1v4.7c0.3-0.2,1.1-0.4,1.9-0.4c2.4,0,4.2,1.4,4.2,4.1c0,2.6-1.8,4.2-4.6,4.2
			c-0.8,0-1.8-0.1-2.6-0.4V139.2z M8.4,150.7c0.5,0.1,1,0.2,1.5,0.2c2.1,0,3.5-1.2,3.5-3.2c0-2.1-1.4-3.2-3.1-3.2
			c-0.8,0-1.4,0.1-1.9,0.4V150.7z"/>
		<path class="st4" d="M17.4,147.7L17.4,147.7c0,2,1.4,3.2,3,3.2c1.1,0,1.9-0.3,2.7-0.9v1.1c-0.7,0.5-1.7,0.8-2.7,0.8
			c-2.3,0-4.1-1.6-4.1-4.2c0-2.4,1.7-4.2,3.8-4.2c2,0,3.4,1.2,3.4,3.5v0.8H17.4z M22.3,146.8c-0.1-1.7-1-2.3-2.3-2.3
			c-1.2,0-2.3,0.8-2.6,2.3H22.3z"/>
		<path class="st4" d="M25.7,144.1c1.1-0.4,2.3-0.6,3.4-0.6c2,0,3.2,0.8,3.2,2.8v5.4h-1.1v-5.2c0-1.6-1.2-2-2.2-2
			c-0.8,0-1.6,0.1-2.2,0.3v6.9h-1.1V144.1z"/>
		<path class="st4" d="M35.7,147.7L35.7,147.7c0,2,1.4,3.2,3,3.2c1.1,0,1.9-0.3,2.7-0.9v1.1c-0.7,0.5-1.7,0.8-2.7,0.8
			c-2.3,0-4.1-1.6-4.1-4.2c0-2.4,1.7-4.2,3.8-4.2c2,0,3.4,1.2,3.4,3.5v0.8H35.7z M40.6,146.8c-0.1-1.7-1-2.3-2.3-2.3
			c-1.2,0-2.3,0.8-2.6,2.3H40.6z"/>
		<path class="st4" d="M45.3,151.7h-1.1v-7.1H43v-0.9h1.2V142c0-1.9,1.1-3,2.8-3c0.9,0,1.6,0.3,2,0.6v1.1c-0.5-0.4-1.1-0.7-2-0.7
			c-1.1,0-1.7,0.7-1.7,2v1.7h5v8h-1.1v-7.1h-3.9V151.7z"/>
		<path class="st4" d="M52.1,143.7h1.2v-1.9h1.1v1.9h2.3v0.9h-2.3v4.9c0,1,0.4,1.4,1.2,1.4c0.5,0,0.9-0.2,1.5-0.4v1
			c-0.5,0.2-1,0.4-1.7,0.4c-1.2,0-2-0.6-2-2.3v-5h-1.2V143.7z"/>
		<path class="st4" d="M59,141.2c0-0.5,0.4-0.8,0.8-0.8c0.5,0,0.8,0.4,0.8,0.8c0,0.4-0.4,0.8-0.8,0.8C59.3,142,59,141.6,59,141.2z
			 M60.3,151.7h-1.1v-8h1.1V151.7z"/>
		<path class="st4" d="M63.3,144.1c1.1-0.4,2.3-0.6,3.4-0.6c2,0,3.2,0.8,3.2,2.8v5.4h-1.1v-5.2c0-1.6-1.2-2-2.2-2
			c-0.8,0-1.6,0.1-2.2,0.3v6.9h-1.1V144.1z"/>
		<path class="st4" d="M78.2,151.4c-0.3,0.2-1,0.3-1.7,0.3c-2.6,0-4.5-1.4-4.5-4.1c0-2.6,1.8-4.1,4.6-4.1c0.8,0,1.9,0.2,2.6,0.5v7.8
			c0,2.4-1.8,3.4-3.7,3.4c-1,0-1.9-0.2-2.5-0.5v-1c0.7,0.3,1.6,0.6,2.5,0.6c1.3,0,2.6-0.6,2.6-2.7V151.4z M78.2,144.7
			c-0.4-0.1-0.9-0.2-1.5-0.2c-2.2,0-3.5,1.2-3.5,3.1c0,1.9,1.3,3.1,3.4,3.1c0.7,0,1.1-0.1,1.7-0.3V144.7z"/>
		<path class="st4" d="M89.5,151.7h-3.1v-12.3c1-0.2,2.7-0.3,4.1-0.3c3.1,0,5.3,1.4,5.3,4.6c0,3.2-2.5,4.5-5.1,4.5
			c-0.4,0-0.9,0-1.1,0V151.7z M89.5,145.4c0.1,0,0.6,0,0.9,0c1.3,0,2.1-0.5,2.1-1.8c0-1.3-1-1.8-2.1-1.8c-0.3,0-0.7,0-0.9,0.1V145.4
			z"/>
		<path class="st4" d="M99.6,147.9L99.6,147.9c0.3,1,1.4,1.5,2.5,1.5c1.2,0,2.2-0.3,3.1-0.8v2.4c-0.9,0.6-2.2,0.8-3.5,0.8
			c-3.2,0-5.1-1.9-5.1-4.8c0-3.2,2-5.1,4.6-5.1c3.1,0,4.1,2.1,4.1,4.6v1.3H99.6z M102.8,146.2c0-0.9-0.4-1.7-1.5-1.7
			c-1,0-1.5,0.7-1.7,1.7H102.8z"/>
		<path class="st4" d="M106.6,142.3h1.4v-2.3h3v2.3h2.7v2.5H111v3.1c0,1,0.5,1.3,1.2,1.3c0.6,0,1.2-0.2,1.7-0.5v2.7
			c-0.7,0.4-1.6,0.5-2.6,0.5c-1.7,0-3.3-0.8-3.3-3.2v-4h-1.4V142.3z"/>
		<path class="st4" d="M118.1,147.9L118.1,147.9c0.3,1,1.4,1.5,2.5,1.5c1.2,0,2.2-0.3,3.1-0.8v2.4c-0.9,0.6-2.2,0.8-3.5,0.8
			c-3.2,0-5.1-1.9-5.1-4.8c0-3.2,2-5.1,4.6-5.1c3.1,0,4.1,2.1,4.1,4.6v1.3H118.1z M121.3,146.2c0-0.9-0.4-1.7-1.5-1.7
			c-1,0-1.5,0.7-1.7,1.7H121.3z"/>
		<path class="st4" d="M129.2,151.7h-3v-8.7c1-0.5,2.5-0.8,3.9-0.8c0.8,0,1.3,0.1,2.1,0.3v2.9c-0.6-0.3-1.3-0.4-2-0.4
			c-0.3,0-0.6,0-1,0.1V151.7z"/>
		<path class="st4" d="M144.1,151.7l-2.4-7.8l-1.1,7.8h-3.1l1.7-12.4h3.7l2.6,8.4l2.4-8.4h3.7l1.7,12.4h-3.1l-1.1-7.8l-2.4,7.8
			H144.1z"/>
		<path class="st4" d="M160.2,145.7c0-0.8-0.7-1.1-1.6-1.1c-1.1,0-2,0.3-2.7,0.8v-2.5c0.9-0.5,2-0.8,3.2-0.8c2.3,0,4,0.9,4,3.5v5.9
			c-0.9,0.2-2.5,0.4-3.9,0.4c-2.3,0-4.2-0.7-4.2-3c0-2,1.5-2.9,4.1-2.9h1V145.7z M160.2,147.8h-0.8c-0.9,0-1.4,0.3-1.4,0.9
			c0,0.6,0.5,1,1.2,1c0.3,0,0.7,0,1-0.1V147.8z"/>
		<path class="st4" d="M172.7,145.5c-0.8-0.6-1.5-0.9-2.3-0.9c-1.4,0-2.3,0.9-2.3,2.3c0,1.3,0.9,2.3,2.4,2.3c0.9,0,1.6-0.3,2.3-0.8
			v2.7c-0.8,0.5-1.7,0.7-2.7,0.7c-3.2,0-5-2-5-4.9c0-2.9,2-4.9,5-4.9c1.1,0,1.9,0.2,2.7,0.7V145.5z"/>
		<path class="st4" d="M184.2,143.2c-0.8-0.8-1.9-1.3-3.4-1.3c-2.1,0-3.2,1.5-3.2,3.6c0,2.2,1.3,3.6,3.3,3.6c1.5,0,2.4-0.4,3.5-1.3
			v3.2c-1.2,0.7-2.4,0.9-3.6,0.9c-3.9,0-6.4-2.7-6.4-6.4c0-3.8,2.6-6.4,6.4-6.4c1.3,0,2.4,0.2,3.4,0.8V143.2z"/>
		<path class="st4" d="M191.4,145.7c0-0.8-0.7-1.1-1.6-1.1c-1.1,0-2,0.3-2.7,0.8v-2.5c0.9-0.5,2-0.8,3.2-0.8c2.3,0,4,0.9,4,3.5v5.9
			c-0.9,0.2-2.5,0.4-3.9,0.4c-2.3,0-4.2-0.7-4.2-3c0-2,1.5-2.9,4.1-2.9h1V145.7z M191.4,147.8h-0.8c-0.9,0-1.4,0.3-1.4,0.9
			c0,0.6,0.5,1,1.2,1c0.3,0,0.7,0,1-0.1V147.8z"/>
		<path class="st4" d="M199.9,151.7h-3v-14.2h3V151.7z"/>
		<path class="st4" d="M205.6,151.7h-3v-14.2h3V151.7z"/>
		<path class="st4" d="M216.7,151.3c-1.1,0.3-2.8,0.5-4.1,0.5c-2.7,0-4.5-0.8-4.5-3.7v-5.9h3v5.6c0,1,0.2,1.6,1.5,1.6
			c0.3,0,0.7,0,1.1-0.1v-7.1h3V151.3z"/>
		<path class="st4" d="M230.3,145.9c0-0.7-0.2-1.3-1.2-1.3c-0.5,0-1,0.1-1.4,0.3c0.1,0.1,0.1,0.4,0.1,0.8v5.9h-3v-5.7
			c0-0.7-0.2-1.3-1.2-1.3c-0.5,0-0.8,0.1-1.3,0.2v6.8h-3v-8.8c1.3-0.5,3-0.8,4.4-0.8c1.1,0,2.1,0.3,2.6,0.8c0.8-0.4,1.7-0.8,3.1-0.8
			c2.2,0,3.7,0.9,3.7,3.8v5.9h-3V145.9z"/>
		<path class="st4" d="M249.3,143.2c-0.8-0.8-1.9-1.3-3.4-1.3c-2.1,0-3.2,1.5-3.2,3.6c0,2.2,1.3,3.6,3.3,3.6c1.5,0,2.4-0.4,3.5-1.3
			v3.2c-1.2,0.7-2.4,0.9-3.6,0.9c-3.9,0-6.4-2.7-6.4-6.4c0-3.8,2.6-6.4,6.4-6.4c1.3,0,2.4,0.2,3.4,0.8V143.2z"/>
		<path class="st4" d="M256.5,145.7c0-0.8-0.7-1.1-1.6-1.1c-1.1,0-2,0.3-2.7,0.8v-2.5c0.9-0.5,2-0.8,3.2-0.8c2.3,0,4,0.9,4,3.5v5.9
			c-0.9,0.2-2.5,0.4-3.9,0.4c-2.3,0-4.2-0.7-4.2-3c0-2,1.5-2.9,4.1-2.9h1V145.7z M256.5,147.8h-0.8c-0.9,0-1.4,0.3-1.4,0.9
			c0,0.6,0.5,1,1.2,1c0.3,0,0.7,0,1-0.1V147.8z"/>
		<path class="st4" d="M262,142.9c1.4-0.5,3.2-0.9,4.7-0.9c2.5,0,4.1,0.9,4.1,3.9v5.8h-3V146c0-0.8-0.3-1.3-1.3-1.3
			c-0.5,0-1,0.1-1.5,0.2v6.7h-3V142.9z"/>
		<path class="st4" d="M280.4,145.5c-0.8-0.6-1.5-0.9-2.3-0.9c-1.4,0-2.3,0.9-2.3,2.3c0,1.3,0.9,2.3,2.4,2.3c0.9,0,1.6-0.3,2.3-0.8
			v2.7c-0.8,0.5-1.7,0.7-2.7,0.7c-3.2,0-5-2-5-4.9c0-2.9,2-4.9,5-4.9c1.1,0,1.9,0.2,2.7,0.7V145.5z"/>
		<path class="st4" d="M284.9,147.9L284.9,147.9c0.3,1,1.4,1.5,2.5,1.5c1.2,0,2.2-0.3,3.1-0.8v2.4c-0.9,0.6-2.2,0.8-3.5,0.8
			c-3.2,0-5.1-1.9-5.1-4.8c0-3.2,2-5.1,4.6-5.1c3.1,0,4.1,2.1,4.1,4.6v1.3H284.9z M288.1,146.2c0-0.9-0.4-1.7-1.5-1.7
			c-1,0-1.5,0.7-1.7,1.7H288.1z"/>
		<path class="st4" d="M296,151.7h-3v-8.7c1-0.5,2.5-0.8,3.9-0.8c0.8,0,1.3,0.1,2.1,0.3v2.9c-0.6-0.3-1.3-0.4-2-0.4
			c-0.3,0-0.6,0-1,0.1V151.7z"/>
		<path class="st4" d="M314.1,143.2c-0.8-0.8-1.9-1.3-3.4-1.3c-2.1,0-3.2,1.5-3.2,3.6c0,2.2,1.3,3.6,3.3,3.6c1.5,0,2.4-0.4,3.5-1.3
			v3.2c-1.2,0.7-2.4,0.9-3.6,0.9c-3.9,0-6.4-2.7-6.4-6.4c0-3.8,2.6-6.4,6.4-6.4c1.3,0,2.4,0.2,3.4,0.8V143.2z"/>
		<path class="st4" d="M319,147.9L319,147.9c0.3,1,1.4,1.5,2.5,1.5c1.2,0,2.2-0.3,3.1-0.8v2.4c-0.9,0.6-2.2,0.8-3.5,0.8
			c-3.2,0-5.1-1.9-5.1-4.8c0-3.2,2-5.1,4.6-5.1c3.1,0,4.1,2.1,4.1,4.6v1.3H319z M322.1,146.2c0-0.9-0.4-1.7-1.5-1.7
			c-1,0-1.5,0.7-1.7,1.7H322.1z"/>
		<path class="st4" d="M327.1,142.9c1.4-0.5,3.2-0.9,4.7-0.9c2.5,0,4.1,0.9,4.1,3.9v5.8h-3V146c0-0.8-0.3-1.3-1.3-1.3
			c-0.5,0-1,0.1-1.5,0.2v6.7h-3V142.9z"/>
		<path class="st4" d="M337.2,142.3h1.4v-2.3h3v2.3h2.7v2.5h-2.7v3.1c0,1,0.5,1.3,1.2,1.3c0.6,0,1.2-0.2,1.7-0.5v2.7
			c-0.7,0.4-1.6,0.5-2.6,0.5c-1.7,0-3.3-0.8-3.3-3.2v-4h-1.4V142.3z"/>
		<path class="st4" d="M349.5,151.7h-3v-8.7c1-0.5,2.5-0.8,3.9-0.8c0.8,0,1.3,0.1,2.1,0.3v2.9c-0.6-0.3-1.3-0.4-2-0.4
			c-0.3,0-0.6,0-1,0.1V151.7z"/>
		<path class="st4" d="M356.4,147.9L356.4,147.9c0.3,1,1.4,1.5,2.5,1.5c1.2,0,2.2-0.3,3.1-0.8v2.4c-0.9,0.6-2.2,0.8-3.5,0.8
			c-3.2,0-5.1-1.9-5.1-4.8c0-3.2,2-5.1,4.6-5.1c3.1,0,4.1,2.1,4.1,4.6v1.3H356.4z M359.6,146.2c0-0.9-0.4-1.7-1.5-1.7
			c-1,0-1.5,0.7-1.7,1.7H359.6z"/>
	</g>
</g>
</svg>
