<?xml version="1.0" encoding="utf-8"?>
<!-- Generator: Adobe Illustrator 21.0.0, SVG Export Plug-In . SVG Version: 6.00 Build 0)  -->
<svg version="1.1" id="Layer_2" xmlns="http://www.w3.org/2000/svg" xmlns:xlink="http://www.w3.org/1999/xlink" x="0px" y="0px"
	 viewBox="0 0 359.2 138.5" style="enable-background:new 0 0 359.2 138.5;" xml:space="preserve">
<style type="text/css">
	.st0{display:none;}
	.st1{display:inline;}
	.st2{fill:#B3282D;}
	.st3{fill:#4E9D2D;}
	.st4{fill:#E27C00;}
	.st5{fill:#FFC627;}
	.st6{fill:#00609C;}
	.st7{font-family:'Karbon-Bold';}
	.st8{font-size:21.9315px;}
</style>
<g class="st0">
	<g class="st1">
		<g>
			<polygon class="st2" points="1.6,-37.2 0,-33.7 71.5,-33.7 74.3,-37.2 1.6,-37.2 			"/>
			<polygon class="st3" points="73.6,-37.2 71,-33.7 142.8,-33.7 146.3,-37.2 73.6,-37.2 			"/>
			<polygon class="st4" points="291.9,-37.2 288.4,-33.7 353.2,-33.7 356.6,-37.2 291.9,-37.2 			"/>
			<polygon class="st5" points="146.2,-37.2 142.7,-33.7 221.6,-33.7 225.1,-37.2 146.2,-37.2 			"/>
			<polygon class="st6" points="219.2,-37.2 215.7,-33.7 288.4,-33.7 291.9,-37.2 219.2,-37.2 			"/>
		</g>
		<g>
			<path class="st6" d="M1.4-117.7c0-20.8,14.5-38.6,37.4-38.6c21.2,0,35.1,13.6,35.1,34.1c0,20.8-14.5,38.6-37.4,38.6
				C15.3-83.6,1.4-97.2,1.4-117.7z M55.8-122.1c0-10.8-6.5-18.5-17-18.5c-11.4,0-19.3,9.2-19.3,22.7c0,10.8,6.5,18.5,17,18.5
				C47.9-99.4,55.8-108.6,55.8-122.1z"/>
			<path class="st6" d="M109.1-84.8l5.4-31.1c0.2-1.3,0.2-2.1,0.2-2.7c0-3.4-2.2-5.6-6.7-5.6c-2.7,0-5.7,0.5-8.4,1.3L93-84.8H76.2
				l8.6-49.4c6.7-2.4,17.5-5,25.9-5c13.1,0,21.2,4.1,21.2,16.3c0,2-0.2,4.5-0.6,6.9l-5.4,31.2H109.1z"/>
			<path class="st6" d="M182.6-87.2c-5.6,2.6-11,3.5-18.2,3.5c-15.6,0-26.6-8.5-26.6-25.3c0-16.6,10.9-30.3,29.5-30.3
				c15.5,0,22.5,9,22.5,21.2c0,3.1-0.8,7.8-2.4,11.7h-33c0,0.1,0,0.2,0,0.4c1.2,5.8,6.5,8.3,12.7,8.3c7,0,12.4-1.5,18.1-4.3
				L182.6-87.2z M173.7-116c0.1-0.8,0.2-1.7,0.2-2.5c0-4.5-2.8-7.3-7.5-7.3c-6.1,0-10.1,3.9-11.6,9.8H173.7z"/>
			<g>
				<path class="st4" d="M208.7-155.3c4.5-0.6,9.9-0.9,14.3-0.9c21.2,0,36.7,10.5,36.7,32.1c0,28.6-21.1,40.6-45.4,40.6
					c-6.6,0-13.8-0.9-17.7-2.4L208.7-155.3z M204.6-91.1c2.1,0.6,4.8,1.1,9.7,1.1c21.6,0,38.1-9.7,38.1-34.2
					c0-16.8-12.3-25.7-29.3-25.7c-2.4,0-5.3,0.1-8.2,0.4L204.6-91.1z"/>
				<path class="st4" d="M214.3-83.1c-6.8,0-14-1-17.9-2.4l-0.4-0.1l0.1-0.4l12.2-69.7l0.4,0c4.5-0.6,10-1,14.4-1
					c23.3,0,37.2,12.2,37.2,32.5C260.2-98.5,243-83.1,214.3-83.1z M197.1-86.3c3.9,1.3,10.7,2.2,17.2,2.2c28.1,0,44.9-15,44.9-40.1
					c0-19.8-13.5-31.6-36.2-31.6c-4.3,0-9.5,0.3-13.9,0.9L197.1-86.3z M214.3-89.5c-5.2,0-7.9-0.5-9.8-1.1l-0.4-0.1l10.4-59.2l0.4,0
					c2.7-0.2,5.7-0.4,8.2-0.4c18.4,0,29.8,10,29.8,26.2C252.9-101.8,239.2-89.5,214.3-89.5z M205.1-91.4c1.8,0.5,4.4,0.9,9.1,0.9
					c24.2,0,37.6-12,37.6-33.7c0-15.5-11.1-25.2-28.8-25.2c-2.3,0-5.1,0.1-7.7,0.3L205.1-91.4z"/>
			</g>
			<g>
				<path class="st4" d="M297.3-99.5h-25.8l-8.2,14.7h-5.8l30.1-53.2h7.3L306-84.8h-5.6L297.3-99.5z M274.1-104.2h22.3l-5.9-29.3
					L274.1-104.2z"/>
				<path class="st4" d="M307.3-83.7h-7.9l-3-14.7h-24.2l-8.2,14.7h-8.4l31.3-55.4h8.8L307.3-83.7z M301.2-85.9h3.4l-10.7-51h-5.7
					l-28.8,51h3.3l8.2-14.7h27.3L301.2-85.9z M297.7-103.1h-25.5l18.8-33.5L297.7-103.1z M276-105.3H295l-5.1-25L276-105.3z"/>
			</g>
			<g>
				<path class="st4" d="M348.2-138h6.3l-25,32l-3.7,21.2h-5.6l3.8-21.2l-13.8-32h5.9l11.3,27L348.2-138z"/>
				<path class="st4" d="M326.8-83.7H319l3.9-22.2l-14.3-33.2h8.3l10.8,25.9l19.9-25.9h9.1l-26.2,33.5L326.8-83.7z M321.6-85.9h3.3
					l3.6-20.6l23.8-30.4h-3.5l-21.6,28l-11.7-28h-3.5l13.3,30.7L321.6-85.9z"/>
			</g>
			<path class="st4" d="M345.1-84.9h-1.6v-5h-2v-1.4h5.5v1.4h-1.9V-84.9z M350.9-84.9l-1.3-4.2l-0.7,4.2h-1.5l1.1-6.4h1.8l1.4,4.4
				l1.3-4.4h1.9l1,6.4h-1.5l-0.7-4.2l-1.3,4.2H350.9z"/>
		</g>
		<g>
			<path class="st6" d="M13.8-49.5H9.9v-19.4H2.7v-3.5H21v3.5h-7.2V-49.5z"/>
			<path class="st6" d="M34-72.8c6.6,0,11.9,4.8,11.9,11.8c0,7-5.3,11.8-11.9,11.8c-6.6,0-11.9-4.8-11.9-11.8
				C22.2-68,27.4-72.8,34-72.8z M34-69.2c-4.4,0-7.8,3.3-7.8,8.3c0,5,3.4,8.3,7.8,8.3c4.4,0,7.8-3.3,7.8-8.3
				C41.8-66,38.4-69.2,34-69.2z"/>
			<path class="st6" d="M74.3-66.8c-1.6-1.5-3.8-2.4-6.3-2.4c-4.5,0-7.7,3.3-7.7,8.3c0,5,3.4,8.3,7.9,8.3c2.6,0,4.7-0.8,6.5-2.3v4.2
				c-2,1.2-4.2,1.7-6.6,1.7c-7,0-11.8-4.9-11.8-11.8c0-7,5-11.8,11.8-11.8c2.3,0,4.5,0.5,6.3,1.6V-66.8z"/>
			<path class="st6" d="M89.2-72.8c6.6,0,11.9,4.8,11.9,11.8c0,7-5.3,11.8-11.9,11.8c-6.6,0-11.9-4.8-11.9-11.8
				C77.4-68,82.6-72.8,89.2-72.8z M89.2-69.2c-4.4,0-7.8,3.3-7.8,8.3c0,5,3.4,8.3,7.8,8.3c4.4,0,7.8-3.3,7.8-8.3
				C97-66,93.6-69.2,89.2-69.2z"/>
			<path class="st6" d="M121-55.5v-16.9h3.8v22.9H121l-11.7-16.8v16.8h-3.8v-22.9h4L121-55.5z"/>
			<path class="st6" d="M140.5-49.1c-6.4-0.2-11.4-5-11.4-11.8c0-7,5.2-11.8,11.9-11.8c6.6,0,11.9,4.8,11.9,11.8
				c0,5.6-3.4,9.8-8.1,11.3l5.1,5.6h-4.8L140.5-49.1z M141-69.2c-4.4,0-7.8,3.3-7.8,8.3c0,5,3.4,8.3,7.8,8.3c4.4,0,7.8-3.3,7.8-8.3
				C148.8-66,145.4-69.2,141-69.2z"/>
			<path class="st6" d="M156.8-72.4h3.9V-58c0,4.4,2.3,5.5,5.7,5.5c1.8,0,3.2-0.2,4.5-0.4v-19.5h3.9v22.2c-2.1,0.6-5.7,1-8.4,1
				c-5.2,0-9.6-1.8-9.6-8.2V-72.4z"/>
			<path class="st6" d="M194.7-53v3.5h-14.2v-22.9h14v3.5h-10.1v6.2h9.4v3.4h-9.4v6.4H194.7z"/>
			<path class="st6" d="M203.3-49.5h-3.9v-22.8c1.4-0.2,3.9-0.4,5.7-0.4c6,0,9.3,2.7,9.3,7.5c0,3.4-1.9,5.8-4.5,6.8l6.9,9H212
				l-6.1-8.1h-2.6V-49.5z M203.3-60.9h1.9c3.1,0,5.1-1.3,5.1-4.3c0-2.6-1.8-4.2-5.3-4.2c-0.5,0-1.3,0-1.8,0.1V-60.9z"/>
			<path class="st6" d="M243.6-66.8c-1.6-1.5-3.8-2.4-6.3-2.4c-4.5,0-7.7,3.3-7.7,8.3c0,5,3.4,8.3,7.9,8.3c2.6,0,4.7-0.8,6.5-2.3
				v4.2c-2,1.2-4.2,1.7-6.6,1.7c-7,0-11.8-4.9-11.8-11.8c0-7,5-11.8,11.8-11.8c2.3,0,4.5,0.5,6.3,1.6V-66.8z"/>
			<path class="st6" d="M252.1-54.9l-2,5.4h-4.2l8.9-22.9h4.8l8.9,22.9h-4.3l-2-5.4H252.1z M257.2-68.7l-3.9,10.6h7.8L257.2-68.7z"
				/>
			<path class="st6" d="M287.2-55.5v-16.9h3.8v22.9h-3.8l-11.7-16.8v16.8h-3.8v-22.9h4L287.2-55.5z"/>
			<path class="st6" d="M313.4-66.8c-1.6-1.5-3.8-2.4-6.3-2.4c-4.5,0-7.7,3.3-7.7,8.3c0,5,3.4,8.3,7.9,8.3c2.6,0,4.7-0.8,6.5-2.3
				v4.2c-2,1.2-4.2,1.7-6.6,1.7c-7,0-11.8-4.9-11.8-11.8c0-7,5-11.8,11.8-11.8c2.3,0,4.5,0.5,6.3,1.6V-66.8z"/>
			<path class="st6" d="M332.2-53v3.5H318v-22.9h14v3.5h-10.1v6.2h9.4v3.4h-9.4v6.4H332.2z"/>
			<path class="st6" d="M340.8-49.5h-3.9v-22.8c1.4-0.2,3.9-0.4,5.7-0.4c6,0,9.3,2.7,9.3,7.5c0,3.4-1.9,5.8-4.5,6.8l6.9,9h-4.7
				l-6.1-8.1h-2.6V-49.5z M340.8-60.9h1.9c3.1,0,5.1-1.3,5.1-4.3c0-2.6-1.8-4.2-5.3-4.2c-0.5,0-1.3,0-1.8,0.1V-60.9z"/>
		</g>
		<text transform="matrix(1 0 0 1 3.1682 -9.8493)" class="st6 st7 st8">Royal Brisbane and Women’s Hospital</text>
	</g>
	<g class="st1">
		<text transform="matrix(1 0 0 1 75.8465 -148.5303)" class="st6 st7 st8">Susan Suduk</text>
	</g>
</g>
<g>
	<g>
		<g>
			<polygon class="st2" points="1.6,104.5 0,108.1 71.5,108.1 74.3,104.5 1.6,104.5 			"/>
			<polygon class="st3" points="73.6,104.5 71,108.1 142.8,108.1 146.3,104.5 73.6,104.5 			"/>
			<polygon class="st4" points="291.9,104.5 288.4,108.1 353.2,108.1 356.6,104.5 291.9,104.5 			"/>
			<polygon class="st5" points="146.2,104.5 142.7,108.1 221.6,108.1 225.1,104.5 146.2,104.5 			"/>
			<polygon class="st6" points="219.2,104.5 215.7,108.1 288.4,108.1 291.9,104.5 219.2,104.5 			"/>
		</g>
		<g>
			<path class="st6" d="M86.4,32.3C86.4,16.5,97.5,3,114.9,3c16.1,0,26.7,10.3,26.7,25.9c0,15.8-11.1,29.3-28.4,29.3
				C97,58.3,86.4,47.9,86.4,32.3z M127.8,29c0-8.2-4.9-14-13-14c-8.6,0-14.7,7-14.7,17.3c0,8.2,4.9,14,13,14
				C121.8,46.3,127.8,39.3,127.8,29z"/>
			<path class="st6" d="M168.4,57.4l4.1-23.7c0.2-1,0.2-1.6,0.2-2.1c0-2.6-1.7-4.2-5.1-4.2c-2.1,0-4.3,0.4-6.4,1l-5,29h-12.8
				l6.6-37.6c5.1-1.8,13.3-3.8,19.7-3.8c10,0,16.1,3.1,16.1,12.4c0,1.5-0.2,3.4-0.4,5.2l-4.1,23.8H168.4z"/>
			<path class="st6" d="M224.3,55.6c-4.2,2-8.4,2.7-13.9,2.7c-11.9,0-20.2-6.5-20.2-19.3c0-12.6,8.3-23,22.4-23
				c11.8,0,17.1,6.8,17.1,16.1c0,2.3-0.6,5.9-1.8,8.9h-25.1c0,0.1,0,0.2,0,0.3c0.9,4.4,4.9,6.3,9.6,6.3c5.3,0,9.4-1.2,13.8-3.2
				L224.3,55.6z M217.5,33.6c0.1-0.6,0.2-1.3,0.2-1.9c0-3.4-2.2-5.6-5.7-5.6c-4.7,0-7.6,3-8.8,7.5H217.5z"/>
			<g>
				<path class="st4" d="M244.1,3.7C247.6,3.3,251.7,3,255,3c16.1,0,27.9,8,27.9,24.4c0,21.8-16,30.9-34.6,30.9
					c-5,0-10.5-0.7-13.5-1.8L244.1,3.7z M241,52.6c1.6,0.4,3.7,0.8,7.4,0.8c16.5,0,29-7.4,29-26c0-12.8-9.4-19.5-22.3-19.5
					c-1.8,0-4,0.1-6.2,0.3L241,52.6z"/>
				<path class="st4" d="M248.4,58.6c-5.2,0-10.6-0.7-13.6-1.8l-0.3-0.1l0.1-0.3l9.3-53l0.3,0c3.4-0.4,7.6-0.7,10.9-0.7
					c17.7,0,28.3,9.3,28.3,24.8C283.3,47,270.2,58.6,248.4,58.6z M235.3,56.2c3,1,8.2,1.7,13.1,1.7c21.4,0,34.2-11.4,34.2-30.5
					c0-15-10.3-24-27.5-24c-3.2,0-7.3,0.3-10.6,0.7L235.3,56.2z M248.4,53.8c-4,0-6-0.4-7.5-0.8l-0.3-0.1l7.9-45.1l0.3,0
					c2.1-0.2,4.3-0.3,6.2-0.3c14,0,22.7,7.6,22.7,19.9C277.7,44.4,267.3,53.8,248.4,53.8z M241.4,52.3c1.4,0.4,3.4,0.7,6.9,0.7
					c18.4,0,28.6-9.1,28.6-25.6c0-11.8-8.4-19.2-21.9-19.2c-1.8,0-3.9,0.1-5.9,0.2L241.4,52.3z"/>
			</g>
			<g>
				<path class="st4" d="M311.5,46.2h-19.6l-6.3,11.2h-4.4l22.9-40.5h5.5l8.5,40.5h-4.3L311.5,46.2z M293.9,42.6h17l-4.5-22.3
					L293.9,42.6z"/>
				<path class="st4" d="M319.2,58.2h-6L310.8,47h-18.4l-6.3,11.2h-6.4l23.8-42.1h6.7L319.2,58.2z M314.5,56.5h2.6l-8.2-38.8h-4.3
					l-21.9,38.8h2.5l6.3-11.2h20.8L314.5,56.5z M311.9,43.5h-19.4L306.7,18L311.9,43.5z M295.3,41.8h14.5l-3.8-19L295.3,41.8z"/>
			</g>
			<g>
				<path class="st4" d="M350.3,16.9h4.8l-19,24.3l-2.8,16.1H329l2.9-16.1l-10.5-24.3h4.5l8.6,20.5L350.3,16.9z"/>
				<path class="st4" d="M334,58.2H328l3-16.9l-10.9-25.3h6.3l8.2,19.7l15.2-19.7h6.9l-19.9,25.5L334,58.2z M330,56.5h2.5l2.7-15.7
					l18.1-23.1h-2.6l-16.4,21.3l-8.9-21.3h-2.7l10.1,23.4L330,56.5z"/>
			</g>
			<path class="st4" d="M347.9,57.3h-1.2v-3.8h-1.5v-1h4.2v1h-1.5V57.3z M352.3,57.3l-1-3.2l-0.5,3.2h-1.2l0.8-4.8h1.4l1,3.4l1-3.4
				h1.4l0.8,4.8h-1.2l-0.6-3.2l-1,3.2H352.3z"/>
		</g>
		<g>
			<path class="st6" d="M13.8,92.3H9.9V72.9H2.7v-3.5H21v3.5h-7.2V92.3z"/>
			<path class="st6" d="M34,69c6.6,0,11.9,4.8,11.9,11.8S40.6,92.6,34,92.6c-6.6,0-11.9-4.8-11.9-11.8S27.4,69,34,69z M34,72.5
				c-4.4,0-7.8,3.3-7.8,8.3c0,5,3.4,8.3,7.8,8.3c4.4,0,7.8-3.3,7.8-8.3C41.8,75.8,38.4,72.5,34,72.5z"/>
			<path class="st6" d="M74.3,74.9c-1.6-1.5-3.8-2.4-6.3-2.4c-4.5,0-7.7,3.3-7.7,8.3c0,5,3.4,8.3,7.9,8.3c2.6,0,4.7-0.8,6.5-2.3V91
				c-2,1.2-4.2,1.7-6.6,1.7c-7,0-11.8-4.9-11.8-11.8c0-7,5-11.8,11.8-11.8c2.3,0,4.5,0.5,6.3,1.6V74.9z"/>
			<path class="st6" d="M89.2,69c6.6,0,11.9,4.8,11.9,11.8s-5.3,11.8-11.9,11.8c-6.6,0-11.9-4.8-11.9-11.8S82.6,69,89.2,69z
				 M89.2,72.5c-4.4,0-7.8,3.3-7.8,8.3c0,5,3.4,8.3,7.8,8.3c4.4,0,7.8-3.3,7.8-8.3C97,75.8,93.6,72.5,89.2,72.5z"/>
			<path class="st6" d="M121,86.3V69.4h3.8v22.9H121l-11.7-16.8v16.8h-3.8V69.4h4L121,86.3z"/>
			<path class="st6" d="M140.5,92.6c-6.4-0.2-11.4-5-11.4-11.8c0-7,5.2-11.8,11.9-11.8c6.6,0,11.9,4.8,11.9,11.8
				c0,5.6-3.4,9.8-8.1,11.3l5.1,5.6h-4.8L140.5,92.6z M141,72.5c-4.4,0-7.8,3.3-7.8,8.3c0,5,3.4,8.3,7.8,8.3c4.4,0,7.8-3.3,7.8-8.3
				C148.8,75.8,145.4,72.5,141,72.5z"/>
			<path class="st6" d="M156.8,69.4h3.9v14.4c0,4.4,2.3,5.5,5.7,5.5c1.8,0,3.2-0.2,4.5-0.4V69.4h3.9v22.2c-2.1,0.6-5.7,1-8.4,1
				c-5.2,0-9.6-1.8-9.6-8.2V69.4z"/>
			<path class="st6" d="M194.7,88.8v3.5h-14.2V69.4h14v3.5h-10.1V79h9.4v3.4h-9.4v6.4H194.7z"/>
			<path class="st6" d="M203.3,92.3h-3.9V69.4c1.4-0.2,3.9-0.4,5.7-0.4c6,0,9.3,2.7,9.3,7.5c0,3.4-1.9,5.8-4.5,6.8l6.9,9H212
				l-6.1-8.1h-2.6V92.3z M203.3,80.9h1.9c3.1,0,5.1-1.3,5.1-4.3c0-2.6-1.8-4.2-5.3-4.2c-0.5,0-1.3,0-1.8,0.1V80.9z"/>
			<path class="st6" d="M243.6,74.9c-1.6-1.5-3.8-2.4-6.3-2.4c-4.5,0-7.7,3.3-7.7,8.3c0,5,3.4,8.3,7.9,8.3c2.6,0,4.7-0.8,6.5-2.3V91
				c-2,1.2-4.2,1.7-6.6,1.7c-7,0-11.8-4.9-11.8-11.8c0-7,5-11.8,11.8-11.8c2.3,0,4.5,0.5,6.3,1.6V74.9z"/>
			<path class="st6" d="M252.1,86.9l-2,5.4h-4.2l8.9-22.9h4.8l8.9,22.9h-4.3l-2-5.4H252.1z M257.2,73.1l-3.9,10.6h7.8L257.2,73.1z"
				/>
			<path class="st6" d="M287.2,86.3V69.4h3.8v22.9h-3.8l-11.7-16.8v16.8h-3.8V69.4h4L287.2,86.3z"/>
			<path class="st6" d="M313.4,74.9c-1.6-1.5-3.8-2.4-6.3-2.4c-4.5,0-7.7,3.3-7.7,8.3c0,5,3.4,8.3,7.9,8.3c2.6,0,4.7-0.8,6.5-2.3V91
				c-2,1.2-4.2,1.7-6.6,1.7c-7,0-11.8-4.9-11.8-11.8c0-7,5-11.8,11.8-11.8c2.3,0,4.5,0.5,6.3,1.6V74.9z"/>
			<path class="st6" d="M332.2,88.8v3.5H318V69.4h14v3.5h-10.1V79h9.4v3.4h-9.4v6.4H332.2z"/>
			<path class="st6" d="M340.8,92.3h-3.9V69.4c1.4-0.2,3.9-0.4,5.7-0.4c6,0,9.3,2.7,9.3,7.5c0,3.4-1.9,5.8-4.5,6.8l6.9,9h-4.7
				l-6.1-8.1h-2.6V92.3z M340.8,80.9h1.9c3.1,0,5.1-1.3,5.1-4.3c0-2.6-1.8-4.2-5.3-4.2c-0.5,0-1.3,0-1.8,0.1V80.9z"/>
		</g>
		<g>
			<path class="st6" d="M9,131.9H5.7v-13c1-0.2,2.8-0.3,4.1-0.3c3.3,0,5.6,1.4,5.6,4.5c0,1.9-1.1,3.2-2.3,3.9l3.5,4.9h-3.8l-2.8-4.2
				H9V131.9z M9,125.1h0.8c1.4,0,2.3-0.5,2.3-1.8c0-1.3-1-1.8-2.2-1.8c-0.3,0-0.7,0-0.9,0V125.1z"/>
			<path class="st6" d="M22.5,121.8c3,0,5.2,2.1,5.2,5.2c0,3.1-2.3,5.2-5.2,5.2c-2.9,0-5.2-2.1-5.2-5.2
				C17.3,123.9,19.6,121.8,22.5,121.8z M22.5,124.5c-1.2,0-2.1,0.9-2.1,2.5c0,1.6,0.9,2.5,2.1,2.5c1.2,0,2.1-0.9,2.1-2.5
				C24.6,125.4,23.8,124.5,22.5,124.5z"/>
			<path class="st6" d="M34.1,128.5l2.2-6.4h3.2l-5.4,13.8h-3.1l1.4-3.8l-4-10.1h3.4L34.1,128.5z"/>
			<path class="st6" d="M45.7,125.6c0-0.9-0.8-1.2-1.7-1.2c-1.2,0-2.1,0.4-2.8,0.8v-2.6c0.9-0.5,2.1-0.8,3.4-0.8
				c2.4,0,4.2,0.9,4.2,3.7v6.2c-1,0.2-2.6,0.4-4,0.4c-2.4,0-4.4-0.7-4.4-3.1c0-2.1,1.6-3,4.3-3h1.1V125.6z M45.7,127.9h-0.8
				c-1,0-1.4,0.3-1.4,1c0,0.7,0.5,1,1.3,1c0.3,0,0.7,0,1-0.1V127.9z"/>
			<path class="st6" d="M54.6,131.9h-3.1V117h3.1V131.9z"/>
			<path class="st6" d="M61.8,119c1-0.2,2.8-0.4,4-0.4c2.9,0,5.2,0.9,5.2,3.7c0,1.5-1.1,2.5-2.3,2.8c1.7,0.2,3,1.2,3,3.1
				c0,2.5-1.9,3.8-6.3,3.8c-1.2,0-2.7-0.1-3.5-0.3V119z M65,124.1h0.9c1.4,0,1.9-0.5,1.9-1.4c0-0.9-0.7-1.2-1.7-1.2
				c-0.4,0-0.9,0-1.2,0.1V124.1z M65,129.4c0.3,0,0.8,0,1,0c1.3,0,2.3-0.3,2.3-1.4c0-1-0.7-1.3-1.9-1.3H65V129.4z"/>
			<path class="st6" d="M77,131.9h-3.1v-9.1c1.1-0.6,2.6-0.9,4-0.9c0.9,0,1.4,0.1,2.2,0.3v3c-0.7-0.3-1.4-0.4-2.1-0.4
				c-0.3,0-0.7,0-1.1,0.1V131.9z"/>
			<path class="st6" d="M81.7,119.1c0-1,0.8-1.8,1.8-1.8c0.9,0,1.8,0.8,1.8,1.8c0,1-0.8,1.8-1.8,1.8
				C82.5,120.9,81.7,120.1,81.7,119.1z M85,131.9h-3.1v-9.9H85V131.9z"/>
			<path class="st6" d="M87.6,128.6c1,0.7,2.3,1.1,3.3,1.1c0.7,0,1.2-0.2,1.2-0.6c0-0.4-0.3-0.6-1.2-0.7c-2.4-0.3-3.4-1.3-3.4-3.1
				c0-2.3,1.8-3.3,4-3.3c1.2,0,2.1,0.3,3,0.7v2.7c-1-0.6-1.9-0.9-2.8-0.9c-0.8,0-1.1,0.3-1.1,0.6c0,0.4,0.3,0.6,1,0.7
				c2.8,0.5,3.6,1.5,3.6,3.3c0,2.2-1.6,3.2-4.1,3.2c-1.2,0-2.5-0.3-3.4-0.8V128.6z"/>
			<path class="st6" d="M97.4,117h3.1v5.3c0.5-0.3,1.4-0.5,2.1-0.5c2.7,0,4.8,1.9,4.8,4.8c0,3.2-1.9,5.5-5.9,5.5
				c-1.8,0-3.2-0.4-4.2-0.8V117z M100.5,129.3c0.3,0.1,0.7,0.2,1.2,0.2c1.4,0,2.6-0.7,2.6-2.7c0-1.2-0.9-2.1-2.1-2.1
				c-0.7,0-1.3,0.3-1.6,0.5V129.3z"/>
			<path class="st6" d="M114.4,125.6c0-0.9-0.8-1.2-1.7-1.2c-1.2,0-2.1,0.4-2.8,0.8v-2.6c0.9-0.5,2.1-0.8,3.4-0.8
				c2.4,0,4.2,0.9,4.2,3.7v6.2c-1,0.2-2.6,0.4-4,0.4c-2.4,0-4.4-0.7-4.4-3.1c0-2.1,1.6-3,4.3-3h1.1V125.6z M114.4,127.9h-0.8
				c-1,0-1.4,0.3-1.4,1c0,0.7,0.5,1,1.3,1c0.3,0,0.7,0,1-0.1V127.9z"/>
			<path class="st6" d="M120.1,122.8c1.4-0.6,3.4-0.9,4.9-0.9c2.6,0,4.3,0.9,4.3,4.1v6h-3.1V126c0-0.8-0.3-1.4-1.4-1.4
				c-0.5,0-1.1,0.1-1.6,0.2v7.1h-3.1V122.8z"/>
			<path class="st6" d="M134.4,128L134.4,128c0.3,1.1,1.5,1.5,2.7,1.5c1.3,0,2.3-0.3,3.3-0.8v2.6c-0.9,0.6-2.3,0.9-3.6,0.9
				c-3.3,0-5.3-2-5.3-5c0-3.3,2.1-5.3,4.9-5.3c3.3,0,4.3,2.2,4.3,4.8v1.3H134.4z M137.7,126.2c0-0.9-0.4-1.8-1.5-1.8
				c-1,0-1.6,0.7-1.8,1.8H137.7z"/>
			<path class="st6" d="M152.1,125.6c0-0.9-0.8-1.2-1.7-1.2c-1.2,0-2.1,0.4-2.8,0.8v-2.6c0.9-0.5,2.1-0.8,3.4-0.8
				c2.4,0,4.2,0.9,4.2,3.7v6.2c-1,0.2-2.6,0.4-4,0.4c-2.4,0-4.4-0.7-4.4-3.1c0-2.1,1.6-3,4.3-3h1.1V125.6z M152.1,127.9h-0.8
				c-1,0-1.4,0.3-1.4,1c0,0.7,0.5,1,1.3,1c0.3,0,0.7,0,1-0.1V127.9z"/>
			<path class="st6" d="M157.8,122.8c1.4-0.6,3.4-0.9,4.9-0.9c2.6,0,4.3,0.9,4.3,4.1v6h-3.1V126c0-0.8-0.3-1.4-1.4-1.4
				c-0.5,0-1.1,0.1-1.6,0.2v7.1h-3.1V122.8z"/>
			<path class="st6" d="M179,131.6c-1.2,0.3-2.9,0.5-4.3,0.5c-3.4,0-5.7-1.8-5.7-5.1c0-3,2-5.2,5.1-5.2c0.7,0,1.3,0.1,1.7,0.3V117
				h3.1V131.6z M175.9,124.8c-0.4-0.2-0.9-0.3-1.4-0.3c-1.4,0-2.2,0.9-2.2,2.3c0,1.7,1,2.6,2.6,2.6c0.2,0,0.7,0,1.1-0.1V124.8z"/>
			<path class="st6" d="M196.2,118.9l2.3,9.3l2-9.3h3.2l-3.1,13h-4.1l-2-8.4l-2,8.4h-4l-3.1-13h3.3l2.1,9.3l2.2-9.3H196.2z"/>
			<path class="st6" d="M209.5,121.8c3,0,5.2,2.1,5.2,5.2c0,3.1-2.3,5.2-5.2,5.2c-2.9,0-5.2-2.1-5.2-5.2
				C204.3,123.9,206.6,121.8,209.5,121.8z M209.5,124.5c-1.2,0-2.1,0.9-2.1,2.5c0,1.6,0.9,2.5,2.1,2.5c1.2,0,2.1-0.9,2.1-2.5
				C211.7,125.4,210.8,124.5,209.5,124.5z"/>
			<path class="st6" d="M228.3,125.9c0-0.8-0.2-1.4-1.2-1.4c-0.5,0-1.1,0.1-1.5,0.3c0.1,0.2,0.2,0.4,0.2,0.8v6.2h-3.1v-6
				c0-0.8-0.2-1.4-1.2-1.4c-0.5,0-0.8,0.1-1.3,0.2v7.2H217v-9.2c1.4-0.5,3.1-0.9,4.6-0.9c1.2,0,2.1,0.3,2.7,0.8
				c0.8-0.4,1.7-0.8,3.2-0.8c2.3,0,3.9,0.9,3.9,3.9v6.1h-3.1V125.9z"/>
			<path class="st6" d="M236.5,128L236.5,128c0.3,1.1,1.5,1.5,2.7,1.5c1.3,0,2.3-0.3,3.3-0.8v2.6c-0.9,0.6-2.3,0.9-3.6,0.9
				c-3.3,0-5.3-2-5.3-5c0-3.3,2.1-5.3,4.9-5.3c3.3,0,4.3,2.2,4.3,4.8v1.3H236.5z M239.8,126.2c0-0.9-0.4-1.8-1.5-1.8
				c-1,0-1.6,0.7-1.8,1.8H239.8z"/>
			<path class="st6" d="M245,122.8c1.4-0.6,3.4-0.9,4.9-0.9c2.6,0,4.3,0.9,4.3,4.1v6h-3.1V126c0-0.8-0.3-1.4-1.4-1.4
				c-0.5,0-1.1,0.1-1.6,0.2v7.1H245V122.8z"/>
			<path class="st6" d="M260.3,117.8c0,2.5-1.2,4.3-2.5,5.3h-2.1c1.1-1.6,1.5-3.2,1.5-5.3H260.3z"/>
			<path class="st6" d="M261.4,128.6c1,0.7,2.3,1.1,3.3,1.1c0.7,0,1.2-0.2,1.2-0.6c0-0.4-0.3-0.6-1.2-0.7c-2.4-0.3-3.4-1.3-3.4-3.1
				c0-2.3,1.8-3.3,4-3.3c1.2,0,2.1,0.3,3,0.7v2.7c-1-0.6-1.9-0.9-2.8-0.9c-0.8,0-1.1,0.3-1.1,0.6c0,0.4,0.3,0.6,1,0.7
				c2.8,0.5,3.6,1.5,3.6,3.3c0,2.2-1.6,3.2-4.1,3.2c-1.2,0-2.5-0.3-3.4-0.8V128.6z"/>
			<path class="st6" d="M284,118.9h3.3v13H284v-5h-5.2v5h-3.3v-13h3.3v5.1h5.2V118.9z"/>
			<path class="st6" d="M294.6,121.8c3,0,5.2,2.1,5.2,5.2c0,3.1-2.3,5.2-5.2,5.2c-2.9,0-5.2-2.1-5.2-5.2
				C289.4,123.9,291.7,121.8,294.6,121.8z M294.6,124.5c-1.2,0-2.1,0.9-2.1,2.5c0,1.6,0.9,2.5,2.1,2.5c1.2,0,2.1-0.9,2.1-2.5
				C296.7,125.4,295.9,124.5,294.6,124.5z"/>
			<path class="st6" d="M301.7,128.6c1,0.7,2.3,1.1,3.3,1.1c0.7,0,1.2-0.2,1.2-0.6c0-0.4-0.3-0.6-1.2-0.7c-2.4-0.3-3.4-1.3-3.4-3.1
				c0-2.3,1.8-3.3,4-3.3c1.2,0,2.1,0.3,3,0.7v2.7c-1-0.6-1.9-0.9-2.8-0.9c-0.8,0-1.1,0.3-1.1,0.6c0,0.4,0.3,0.6,1,0.7
				c2.8,0.5,3.6,1.5,3.6,3.3c0,2.2-1.6,3.2-4.1,3.2c-1.2,0-2.5-0.3-3.4-0.8V128.6z"/>
			<path class="st6" d="M311.4,122.7c1.1-0.5,2.9-0.9,4.6-0.9c3.2,0,5.4,1.9,5.4,4.9c0,3.5-2,5.4-5.5,5.4c-0.6,0-1.1-0.1-1.4-0.1
				v3.9h-3.1V122.7z M314.5,129.3c0.3,0.1,0.7,0.2,1.1,0.2c1.4,0,2.6-0.7,2.6-2.6c0-1.5-1-2.2-2.3-2.2c-0.4,0-1,0.1-1.4,0.2V129.3z"
				/>
			<path class="st6" d="M323.3,119.1c0-1,0.8-1.8,1.8-1.8c0.9,0,1.8,0.8,1.8,1.8c0,1-0.8,1.8-1.8,1.8
				C324.1,120.9,323.3,120.1,323.3,119.1z M326.7,131.9h-3.1v-9.9h3.1V131.9z"/>
			<path class="st6" d="M328.2,122.1h1.5v-2.4h3.1v2.4h2.8v2.6h-2.8v3.2c0,1.1,0.5,1.4,1.3,1.4c0.7,0,1.3-0.2,1.8-0.5v2.9
				c-0.7,0.4-1.6,0.6-2.7,0.6c-1.8,0-3.5-0.9-3.5-3.4v-4.1h-1.5V122.1z"/>
			<path class="st6" d="M342.8,125.6c0-0.9-0.8-1.2-1.7-1.2c-1.2,0-2.1,0.4-2.8,0.8v-2.6c0.9-0.5,2.1-0.8,3.4-0.8
				c2.4,0,4.2,0.9,4.2,3.7v6.2c-1,0.2-2.6,0.4-4,0.4c-2.4,0-4.4-0.7-4.4-3.1c0-2.1,1.6-3,4.3-3h1.1V125.6z M342.8,127.9h-0.8
				c-1,0-1.4,0.3-1.4,1c0,0.7,0.5,1,1.3,1c0.3,0,0.7,0,1-0.1V127.9z"/>
			<path class="st6" d="M351.7,131.9h-3.1V117h3.1V131.9z"/>
		</g>
	</g>
	<g>
		<g>
			<path class="st6" d="M2.5,30.3C3.7,31.2,5,32,6.8,32c1.4,0,2.6-0.5,2.6-1.8c0-1.2-1-1.7-2.7-2.2c-3.2-0.9-4.5-2.2-4.5-4.9
				c0-3.1,2.4-4.8,5.3-4.8c1.8,0,3.1,0.5,4.3,1.2v3.4c-1.3-1-2.6-1.6-4.2-1.6c-1.4,0-2.1,0.7-2.1,1.7c0,1.1,0.9,1.6,2.8,2.1
				c3.2,0.9,4.5,2.3,4.5,5c0,3.3-2.6,4.8-5.9,4.8c-1.8,0-3.3-0.5-4.3-1.2V30.3z"/>
			<path class="st6" d="M15.4,18.6h3.4v9.7c0,2.9,1.3,3.7,3.4,3.7c1.2,0,2-0.1,2.8-0.2V18.6h3.4v15.5c-1.4,0.4-4.3,0.8-6.3,0.8
				c-3.6,0-6.8-1.4-6.8-5.9V18.6z"/>
			<path class="st6" d="M31.6,30.3c1.2,0.9,2.6,1.6,4.3,1.6c1.4,0,2.6-0.5,2.6-1.8c0-1.2-1-1.7-2.7-2.2c-3.2-0.9-4.5-2.2-4.5-4.9
				c0-3.1,2.4-4.8,5.3-4.8c1.8,0,3.1,0.5,4.3,1.2v3.4c-1.3-1-2.6-1.6-4.2-1.6c-1.4,0-2.1,0.7-2.1,1.7c0,1.1,0.9,1.6,2.8,2.1
				c3.2,0.9,4.5,2.3,4.5,5c0,3.3-2.6,4.8-5.9,4.8c-1.8,0-3.3-0.5-4.3-1.2V30.3z"/>
			<path class="st6" d="M47.8,31.2l-1.2,3.4h-3.6l6.2-16h4.1l6.3,16h-3.7l-1.2-3.4H47.8z M51.2,21.9l-2.4,6.5h4.8L51.2,21.9z"/>
			<path class="st6" d="M72.4,29.4V18.6h3.3v16h-3.2L65,23.9v10.7h-3.3v-16h3.5L72.4,29.4z"/>
			<path class="st6" d="M2.5,51.3C3.7,52.2,5,53,6.8,53c1.4,0,2.6-0.5,2.6-1.8c0-1.2-1-1.7-2.7-2.2c-3.2-0.9-4.5-2.2-4.5-4.9
				c0-3.1,2.4-4.8,5.3-4.8c1.8,0,3.1,0.5,4.3,1.2v3.4c-1.3-1-2.6-1.6-4.2-1.6c-1.4,0-2.1,0.7-2.1,1.7c0,1.1,0.9,1.6,2.8,2.1
				c3.2,0.9,4.5,2.3,4.5,5c0,3.3-2.6,4.8-5.9,4.8c-1.8,0-3.3-0.5-4.3-1.2V51.3z"/>
			<path class="st6" d="M15.4,39.6h3.4v9.7c0,2.9,1.3,3.7,3.4,3.7c1.2,0,2-0.1,2.8-0.2V39.6h3.4v15.5c-1.4,0.4-4.3,0.8-6.3,0.8
				c-3.6,0-6.8-1.4-6.8-5.9V39.6z"/>
			<path class="st6" d="M32.4,39.6c1.2-0.2,3.1-0.4,4.8-0.4c5.9,0,9.2,3,9.2,8.1c0,5.5-3.5,8.5-9.2,8.5c-1.8,0-3.6-0.1-4.8-0.4V39.6
				z M35.8,52.8c0.5,0.1,1.2,0.1,1.8,0.1c3.2,0,5.3-1.7,5.3-5.5c0-3.3-2.1-4.9-5.5-4.9c-0.5,0-1.1,0-1.6,0.1V52.8z"/>
			<path class="st6" d="M49.2,39.6h3.4v9.7c0,2.9,1.3,3.7,3.4,3.7c1.2,0,2-0.1,2.8-0.2V39.6h3.4v15.5c-1.4,0.4-4.3,0.8-6.3,0.8
				c-3.6,0-6.8-1.4-6.8-5.9V39.6z"/>
			<path class="st6" d="M66.2,39.6h3.4v16h-3.4V39.6z M75.2,39.6h4l-5.7,7.8l6.1,8.2h-4l-5.8-7.9L75.2,39.6z"/>
		</g>
	</g>
</g>
</svg>
